<svg version="1.2" xmlns="http://www.w3.org/2000/svg" viewBox="0 0 32 32" width="32" height="32">
	<title>department-svg</title>
	<style>
		.s0 { fill: #86868a } 
	</style>
	<path id="Layer" class="s0" d="m14.9 15.2c-0.6-0.2-1.1-0.5-1.5-1-0.3-0.5-0.5-1.2-0.4-1.8 0.1-0.6 0.4-1.1 0.8-1.5 0.5-0.4 1.1-0.6 1.7-0.6 0.6 0 1.2 0.2 1.7 0.6 0.4 0.4 0.7 0.9 0.8 1.5 0.1 0.6-0.1 1.3-0.4 1.8-0.4 0.5-0.9 0.8-1.5 1v1.3h2.5c0.4 0 0.7 0.1 0.9 0.4 0.2 0.2 0.4 0.5 0.4 0.9v1.3c0.6 0.1 1.1 0.5 1.4 1 0.4 0.5 0.5 1.1 0.4 1.7 0 0.6-0.3 1.2-0.8 1.6-0.5 0.4-1 0.6-1.7 0.6-0.6 0-1.1-0.2-1.6-0.6-0.5-0.4-0.8-1-0.8-1.6-0.1-0.6 0-1.2 0.4-1.7 0.3-0.5 0.8-0.9 1.4-1v-1.3h-6.2v1.3c0.6 0.1 1.1 0.5 1.4 1 0.4 0.5 0.5 1.1 0.4 1.7 0 0.6-0.3 1.2-0.8 1.6-0.5 0.4-1 0.6-1.6 0.6-0.7 0-1.2-0.2-1.7-0.6-0.5-0.4-0.8-1-0.8-1.6-0.1-0.6 0-1.2 0.4-1.7 0.3-0.5 0.8-0.9 1.4-1v-1.3c0-0.4 0.2-0.7 0.4-0.9 0.2-0.3 0.5-0.4 0.9-0.4h2.5z"/>
</svg>