<svg width="34" height="32" viewBox="0 0 34 32" fill="none" xmlns="http://www.w3.org/2000/svg">
<path d="M33.0966 16.0986C33.0966 7.20681 25.8898 0 16.9994 0C8.10891 0 0.9021 7.20681 0.9021 16.0986C0.9021 24.1318 6.78882 30.7913 14.484 31.9987V20.7511H10.3976V16.0973H14.484V12.5515C14.484 8.51616 16.888 6.28785 20.5639 6.28785C22.3253 6.28785 24.1673 6.60177 24.1673 6.60177V10.5634H22.1388C20.1399 10.5634 19.5161 11.8043 19.5161 13.0774V16.0986H23.9808L23.2671 20.7524H19.5161V32C27.2112 30.7926 33.098 24.1331 33.098 16.0986H33.0966Z" fill="#1D1D20"/>
</svg>
