<svg width="64" height="64" viewBox="0 0 64 64" fill="none" xmlns="http://www.w3.org/2000/svg">
<rect width="64" height="64" rx="32" fill="white"/>
<path d="M32.0233 16C23.1953 16 16.0393 23.156 16.0393 31.9827C16.0393 38.7547 20.25 44.5387 26.1966 46.8653C26.0566 45.6 25.9313 43.6613 26.2513 42.28C26.5433 41.0307 28.126 34.3373 28.126 34.3373C28.126 34.3373 27.6473 33.3773 27.6473 31.9627C27.6473 29.7453 28.9366 28.0813 30.538 28.0813C31.9033 28.0813 32.562 29.1067 32.562 30.332C32.562 31.704 31.6913 33.7547 31.2393 35.6547C30.8593 37.2453 32.0393 38.5413 33.606 38.5413C36.4433 38.5413 38.63 35.548 38.63 31.2253C38.63 27.4107 35.8793 24.7333 31.9526 24.7333C27.406 24.7333 24.7406 28.1493 24.7406 31.6653C24.7406 33.0427 25.266 34.5227 25.926 35.32C26.058 35.48 26.0753 35.62 26.0393 35.78C25.9193 36.28 25.6486 37.3787 25.594 37.5973C25.5233 37.8973 25.3646 37.9587 25.0593 37.8173C23.066 36.8973 21.8153 33.98 21.8153 31.6227C21.8153 26.588 25.4793 21.9533 32.3753 21.9533C37.9193 21.9533 42.2313 25.9093 42.2313 31.184C42.2313 36.6973 38.7553 41.1333 33.9206 41.1333C32.302 41.1333 30.782 40.2947 30.2433 39.2947L29.2446 43.092C28.886 44.4853 27.906 46.228 27.2473 47.2867C28.7446 47.7467 30.322 48 31.9806 48C40.79 48 47.9606 40.8467 47.9606 32.0173C47.9606 23.1867 40.79 16.0347 31.9806 16.0347L32.0233 16Z" fill="#1D1D20"/>
</svg>
