<svg version="1.2" xmlns="http://www.w3.org/2000/svg" viewBox="0 0 32 32" width="32" height="32">
	<title>New Project</title>
	<style>
		.s0 { fill: #86868a } 
	</style>
	<path id="Layer" fill-rule="evenodd" class="s0" d="m17.9 9.4c0.5 0.5 0.7 1.2 0.7 1.8 0 0.7-0.2 1.3-0.7 1.8-0.5 0.5-1.1 0.7-1.8 0.7q-0.5 0-0.9-0.2-0.5-0.1-0.9-0.5-0.3-0.4-0.5-0.8-0.2-0.5-0.2-1 0-0.5 0.2-1 0.2-0.4 0.5-0.8 0.4-0.3 0.9-0.5 0.4-0.2 0.9-0.2c0.7 0 1.3 0.3 1.8 0.7zm5.2 1.1c0.3 0.4 0.6 0.9 0.6 1.3 0 0.6-0.3 1-0.6 1.4-0.3 0.3-0.8 0.5-1.3 0.5-0.5 0-1-0.2-1.4-0.5-0.3-0.4-0.5-0.8-0.5-1.4 0-0.4 0.2-0.9 0.5-1.3 0.4-0.4 0.9-0.6 1.4-0.6 0.5 0 1 0.2 1.3 0.6zm-11.3 0c0.4 0.4 0.6 0.9 0.6 1.3 0 0.6-0.2 1-0.6 1.4-0.4 0.3-0.9 0.5-1.3 0.5-0.6 0-1-0.2-1.4-0.5-0.3-0.4-0.5-0.8-0.5-1.4 0-0.4 0.2-0.9 0.5-1.3 0.4-0.4 0.8-0.6 1.4-0.6 0.4 0 0.9 0.2 1.3 0.6zm0.6 5.7c0-0.3 0.1-0.6 0.3-0.8 0.2-0.3 0.6-0.4 0.9-0.4h5c0.4 0 0.7 0.1 0.9 0.4 0.3 0.2 0.4 0.5 0.4 0.9v3.8q0 0.5-0.2 1.1c-0.3 0.9-0.8 1.6-1.6 2.1-0.8 0.5-1.7 0.6-2.6 0.5-0.9-0.1-1.7-0.6-2.2-1.3-0.6-0.7-0.9-1.5-0.9-2.4zm-1.3 3.8c0 0.8 0.2 1.5 0.5 2.3-0.4 0.1-1 0.2-1.5 0.2-0.5-0.1-1-0.3-1.4-0.5-0.5-0.3-0.8-0.7-1-1.2-0.2-0.4-0.4-1-0.4-1.5v-3.1c0-0.4 0.2-0.7 0.4-0.9 0.2-0.3 0.5-0.4 0.9-0.4h2.8q-0.3 0.5-0.3 1.3zm9.7-5.1h2.9c0.3 0 0.6 0.1 0.9 0.4 0.2 0.2 0.3 0.5 0.3 0.9v3.1c0 0.6-0.1 1.1-0.3 1.5-0.3 0.5-0.6 0.9-1.1 1.2q-0.6 0.4-1.4 0.5c-0.5 0-1 0-1.5-0.3 0.4-0.6 0.5-1.4 0.5-2.2v-3.8q0-0.7-0.3-1.3z"/>
</svg>