<svg width="32" height="26" viewBox="0 0 32 26" fill="none" xmlns="http://www.w3.org/2000/svg">
<path d="M31.9373 3.09336C30.7394 3.62081 29.4702 3.96898 28.1708 4.12665C29.5389 3.30435 30.5633 2.0148 31.0547 0.496136C29.7868 1.23611 28.3815 1.77475 26.8855 2.07474C25.8986 1.01935 24.5908 0.319372 23.1652 0.0834885C21.7397 -0.152395 20.2761 0.0890203 19.0018 0.770246C17.7275 1.45147 16.7138 2.53439 16.1181 3.85083C15.5224 5.16727 15.378 6.64357 15.7073 8.05049C10.2542 7.79317 5.42111 5.17461 2.18658 1.21611C1.59833 2.21582 1.2915 3.35605 1.29861 4.51597C1.29861 6.79587 2.45856 8.79979 4.21582 9.97708C3.17435 9.94392 2.15587 9.66233 1.24528 9.15578V9.23711C1.24469 10.7522 1.76828 12.2209 2.72723 13.3939C3.68617 14.567 5.02141 15.3722 6.5064 15.6728C5.54417 15.9307 4.53636 15.9694 3.55719 15.7862C3.97884 17.09 4.7969 18.2298 5.89729 19.0464C6.99767 19.8631 8.32551 20.316 9.6956 20.342C7.37501 22.1631 4.50976 23.1515 1.55993 23.1485C1.03996 23.1485 0.521312 23.1179 0 23.0592C3.00749 24.9849 6.50441 26.0071 10.0756 26.0044C22.1471 26.0044 28.7401 16.0102 28.7401 7.35718C28.7401 7.07853 28.7401 6.79721 28.7201 6.51722C30.0081 5.59039 31.119 4.43971 32 3.12003L31.9373 3.09336Z" fill="#1D1D20"/>
</svg>
