<svg version="1.2" xmlns="http://www.w3.org/2000/svg" viewBox="0 0 32 32" width="32" height="32">
	<title>New Project</title>
	<style>
		.s0 { fill: #86868a } 
	</style>
	<path id="Layer" class="s0" d="m28.5 32q0-0.3 0-0.6 0-0.2-0.1-0.5 0-0.6-0.2-1.1-0.3-0.9-1-1.5-0.5-0.6-1.1-1-0.8-0.5-1.7-0.8-0.8-0.3-1.6-0.5 0 0-0.1 0 0 0.1 0 0.2 0-0.1 0-0.2 0-0.1 0-0.1-0.1 0-0.1-0.1-0.4-0.1-0.7-0.2-0.3-0.2-0.6-0.3 0-0.1-0.1-0.2-0.1-0.1-0.3-0.2-0.1-0.2-0.2-0.3-0.1-0.1-0.1-0.2-0.1-0.1-0.2-0.3-0.2-0.1-0.3-0.2-0.1-0.2-0.2-0.3c-0.1-0.1-0.1-0.1-0.1-0.1q0-0.1 0-0.3-0.1-0.3-0.1-0.5 0-0.2 0-0.4 0-0.1 0-0.1 0.1-0.1 0.2-0.2 0-0.1 0-0.2 0.1-0.1 0.2-0.2c0-0.1 0.1-0.2 0.1-0.3q0.1-0.1 0.1-0.2 0 0 0.1-0.1c0-0.1 0.1-0.2 0.1-0.3q0.1-0.1 0.1-0.3 0.1-0.2 0.2-0.4 0-0.2 0.1-0.4 0-0.1 0-0.1 0.1-0.1 0.1-0.1 0.3-0.2 0.5-0.4 0.3-0.3 0.3-0.8 0.1-0.4 0-0.8 0-0.3-0.2-0.6-0.1-0.2-0.1-0.4 0-0.1 0-0.3 0-0.4 0-0.8 0.1-0.9 0-1.7 0-0.2 0-0.3-0.1-0.4-0.1-0.7 0-0.1 0-0.2 0.1 0 0.2-0.1 0-0.1 0.1-0.1 0-0.1 0-0.2 0-0.1-0.1-0.2-0.4-0.6-1-1.2c-1-1-2.2-1.5-3.6-1.6q-0.5 0-1.1 0.1-0.5 0-1 0.1-0.7 0.2-1.4 0.6-0.5 0.2-0.8 0.6-0.1 0.1-0.2 0.1-0.6 0.3-0.9 0.8-0.3 0.4-0.2 0.9 0 0-0.1 0-0.1 0.2-0.2 0.4 0 0.2 0 0.4-0.1 0.5-0.1 1.1 0 0.6 0.1 1.2 0 0.5 0.1 0.9 0 0.1 0 0.2-0.1 0-0.1 0-0.1 0.2-0.2 0.5-0.2 0.5-0.2 1.1 0 0.3 0.2 0.7 0.2 0.3 0.5 0.6 0.1 0.1 0.2 0.1 0 0.1 0.1 0.1 0-0.1-0.1-0.2 0.1 0.1 0.1 0.2 0 0.1 0 0.2 0.1 0.1 0.1 0.2 0 0 0.1 0.1 0 0.1 0 0.1 0 0.2 0.1 0.4 0.2 0.4 0.3 0.7 0.3 0.5 0.6 1 0 0 0 0.1 0 0.1 0 0.2 0 0.3-0.1 0.5 0 0.2 0 0.5 0 0 0 0-0.1 0.1-0.2 0.2-0.2 0.2-0.3 0.4-0.2 0.2-0.4 0.5 0 0 0 0-0.1 0.1-0.2 0.2-0.1 0.2-0.3 0.3 0 0-0.1 0.1 0 0 0 0.1 0 0-0.1 0-0.6 0.3-1.3 0.6 0 0-0.1 0 0 0.1 0 0.1-0.2 0.1-0.5 0.1-0.9 0.3-1.8 0.7-0.8 0.3-1.4 0.8-0.4 0.3-0.8 0.6-0.2 0.2-0.4 0.5-0.4 0.6-0.6 1.3-0.2 0.7-0.2 1.3-0.1 0.4-0.1 0.7h24.5z"/>
</svg>