<svg width="32" height="34" viewBox="0 0 32 34" fill="none" xmlns="http://www.w3.org/2000/svg">
<path d="M23.3308 20.1912C22.9329 19.9916 20.9756 19.0297 20.6112 18.8958C20.2455 18.7631 19.9802 18.6975 19.7136 19.0967C19.4497 19.4946 18.686 20.3909 18.4543 20.6561C18.2225 20.9227 17.9894 20.9549 17.5915 20.7566C17.1936 20.5556 15.9102 20.1363 14.3897 18.7805C13.2067 17.7249 12.4069 16.4213 12.1751 16.0221C11.9434 15.6242 12.151 15.4085 12.3493 15.2103C12.5288 15.0321 12.7485 14.7454 12.9468 14.5136C13.1464 14.2805 13.2121 14.1144 13.346 13.8478C13.4787 13.5825 13.413 13.3508 13.3125 13.1511C13.2121 12.9515 12.4163 10.9916 12.0854 10.1944C11.7612 9.41876 11.4329 9.52459 11.1891 9.5112C10.9347 9.50106 10.6801 9.4966 10.4255 9.4978C10.1602 9.4978 9.72886 9.59694 9.36446 9.99617C9.00006 10.3941 7.97118 11.3573 7.97118 13.3173C7.97118 15.2759 9.39795 17.1689 9.59622 17.4355C9.79584 17.7007 12.4042 21.7225 16.3979 23.4467C17.3477 23.8566 18.0885 24.1018 18.6673 24.284C19.6212 24.5881 20.4893 24.5452 21.1739 24.4421C21.9388 24.3282 23.529 23.4788 23.8613 22.5491C24.1935 21.6193 24.1935 20.8222 24.0931 20.6561C23.9939 20.49 23.7287 20.3909 23.3294 20.1912M16.0669 30.109H16.0616C13.69 30.1092 11.362 29.4715 9.32159 28.2629L8.83796 27.9762L3.82617 29.2918L5.16318 24.4046L4.84835 23.9035C3.52264 21.7925 2.82132 19.3495 2.82541 16.8567C2.82675 9.55541 8.76829 3.61521 16.0723 3.61521C19.6091 3.61521 22.9342 4.99509 25.4341 7.49764C26.6675 8.72562 27.6451 10.186 28.3104 11.7944C28.9757 13.4027 29.3154 15.127 29.3098 16.8675C29.3058 24.1688 23.3656 30.109 16.0669 30.109ZM27.3378 5.59661C25.8617 4.11079 24.1054 2.93268 22.1707 2.13056C20.236 1.32843 18.1613 0.918245 16.0669 0.923761C7.28525 0.923761 0.137988 8.07103 0.133969 16.8554C0.133969 19.6634 0.866782 22.4044 2.2614 24.8199L0 33.0764L8.44677 30.8606C10.7826 32.1332 13.4002 32.8001 16.0602 32.8004H16.0669C24.8473 32.8004 31.9959 25.6532 31.9999 16.8675C32.0064 14.7739 31.5977 12.6998 30.7975 10.7652C29.9972 8.83059 28.8213 7.07385 27.3378 5.59661Z" fill="#1D1D20"/>
</svg>
